{
	"patcher" : 	{
		"fileversion" : 1,
		"appversion" : 		{
			"major" : 7,
			"minor" : 3,
			"revision" : 3,
			"architecture" : "x86",
			"modernui" : 1
		}
,
		"rect" : [ 67.0, 79.0, 1168.0, 733.0 ],
		"bglocked" : 0,
		"openinpresentation" : 0,
		"default_fontsize" : 12.0,
		"default_fontface" : 0,
		"default_fontname" : "Arial",
		"gridonopen" : 1,
		"gridsize" : [ 15.0, 15.0 ],
		"gridsnaponopen" : 1,
		"objectsnaponopen" : 1,
		"statusbarvisible" : 2,
		"toolbarvisible" : 1,
		"lefttoolbarpinned" : 0,
		"toptoolbarpinned" : 0,
		"righttoolbarpinned" : 0,
		"bottomtoolbarpinned" : 0,
		"toolbars_unpinned_last_save" : 0,
		"tallnewobj" : 0,
		"boxanimatetime" : 200,
		"enablehscroll" : 1,
		"enablevscroll" : 1,
		"devicewidth" : 0.0,
		"description" : "",
		"digest" : "",
		"tags" : "",
		"style" : "",
		"subpatcher_template" : "",
		"boxes" : [ 			{
				"box" : 				{
					"id" : "obj-30",
					"maxclass" : "button",
					"numinlets" : 1,
					"numoutlets" : 1,
					"outlettype" : [ "bang" ],
					"patching_rect" : [ 194.0, 983.0, 24.0, 24.0 ],
					"style" : ""
				}

			}
, 			{
				"box" : 				{
					"id" : "obj-28",
					"maxclass" : "newobj",
					"numinlets" : 1,
					"numoutlets" : 1,
					"outlettype" : [ "" ],
					"patching_rect" : [ 295.0, 1036.0, 56.0, 22.0 ],
					"style" : "",
					"text" : "deferlow"
				}

			}
, 			{
				"box" : 				{
					"id" : "obj-25",
					"maxclass" : "newobj",
					"numinlets" : 1,
					"numoutlets" : 0,
					"patching_rect" : [ 295.0, 1081.0, 126.0, 22.0 ],
					"style" : "",
					"text" : "send init_data_issues"
				}

			}
, 			{
				"box" : 				{
					"id" : "obj-12",
					"maxclass" : "newobj",
					"numinlets" : 1,
					"numoutlets" : 2,
					"outlettype" : [ "bang", "" ],
					"patching_rect" : [ 295.0, 935.0, 93.0, 22.0 ],
					"style" : "",
					"text" : "t b l"
				}

			}
, 			{
				"box" : 				{
					"id" : "obj-9",
					"maxclass" : "newobj",
					"numinlets" : 1,
					"numoutlets" : 1,
					"outlettype" : [ "bang" ],
					"patching_rect" : [ 295.0, 997.0, 113.0, 22.0 ],
					"style" : "",
					"text" : "script.shell_pbcopy",
					"varname" : "script.shell_pbcopy"
				}

			}
, 			{
				"box" : 				{
					"id" : "obj-40",
					"maxclass" : "newobj",
					"numinlets" : 1,
					"numoutlets" : 1,
					"outlettype" : [ "" ],
					"patching_rect" : [ 369.0, 968.0, 53.0, 22.0 ],
					"style" : "",
					"text" : "pcontrol"
				}

			}
, 			{
				"box" : 				{
					"id" : "obj-39",
					"maxclass" : "newobj",
					"numinlets" : 1,
					"numoutlets" : 1,
					"outlettype" : [ "" ],
					"patching_rect" : [ 295.0, 907.0, 81.0, 22.0 ],
					"style" : "",
					"text" : "prepend load"
				}

			}
, 			{
				"box" : 				{
					"id" : "obj-37",
					"maxclass" : "message",
					"numinlets" : 2,
					"numoutlets" : 1,
					"outlettype" : [ "" ],
					"patching_rect" : [ 874.0, 784.0, 58.0, 22.0 ],
					"style" : "",
					"text" : "autopattr"
				}

			}
, 			{
				"box" : 				{
					"id" : "obj-33",
					"maxclass" : "newobj",
					"numinlets" : 1,
					"numoutlets" : 1,
					"outlettype" : [ "" ],
					"patching_rect" : [ 874.0, 821.0, 99.0, 22.0 ],
					"saved_object_attributes" : 					{
						"filename" : "data_issues.js",
						"parameter_enable" : 0
					}
,
					"style" : "",
					"text" : "js data_issues.js",
					"varname" : "js"
				}

			}
, 			{
				"box" : 				{
					"id" : "obj-20",
					"maxclass" : "newobj",
					"numinlets" : 2,
					"numoutlets" : 1,
					"outlettype" : [ "int" ],
					"patching_rect" : [ 203.0, 830.0, 51.0, 22.0 ],
					"style" : "",
					"text" : "random"
				}

			}
, 			{
				"box" : 				{
					"id" : "obj-18",
					"maxclass" : "newobj",
					"numinlets" : 2,
					"numoutlets" : 2,
					"outlettype" : [ "", "" ],
					"patching_rect" : [ 235.0, 799.0, 39.0, 22.0 ],
					"style" : "",
					"text" : "zl.len"
				}

			}
, 			{
				"box" : 				{
					"id" : "obj-17",
					"maxclass" : "newobj",
					"numinlets" : 1,
					"numoutlets" : 3,
					"outlettype" : [ "", "bang", "" ],
					"patching_rect" : [ 179.0, 768.0, 40.0, 22.0 ],
					"style" : "",
					"text" : "t l b l"
				}

			}
, 			{
				"box" : 				{
					"id" : "obj-16",
					"maxclass" : "newobj",
					"numinlets" : 2,
					"numoutlets" : 2,
					"outlettype" : [ "", "" ],
					"patching_rect" : [ 179.0, 866.0, 43.0, 22.0 ],
					"style" : "",
					"text" : "zl.mth"
				}

			}
, 			{
				"box" : 				{
					"id" : "obj-15",
					"maxclass" : "newobj",
					"numinlets" : 1,
					"numoutlets" : 1,
					"outlettype" : [ "" ],
					"patching_rect" : [ 108.0, 364.0, 56.0, 22.0 ],
					"style" : "",
					"text" : "deferlow"
				}

			}
, 			{
				"box" : 				{
					"id" : "obj-14",
					"maxclass" : "newobj",
					"numinlets" : 1,
					"numoutlets" : 2,
					"outlettype" : [ "bang", "" ],
					"patching_rect" : [ 131.0, 226.0, 33.0, 22.0 ],
					"style" : "",
					"text" : "t b s"
				}

			}
, 			{
				"box" : 				{
					"id" : "obj-13",
					"linecount" : 23,
					"maxclass" : "message",
					"numinlets" : 2,
					"numoutlets" : 1,
					"outlettype" : [ "" ],
					"patching_rect" : [ 179.0, 403.0, 894.0, 317.0 ],
					"style" : "",
					"text" : "gen~.7_segment_envelope.maxpat gen~.band_limited_saw.maxpat gen~.band_limited_saw_using_feedback_fm.maxpat gen~.bark.maxpat gen~.biquad.maxpat gen~.bitcrush.maxpat gen~.buffir.maxpat gen~.centroid.maxpat gen~.chaos.maxpat gen~.chopper.maxpat gen~.chopper_repeat.maxpat gen~.chucker.maxpat gen~.comb.maxpat gen~.computed_sine.maxpat gen~.count.maxpat gen~.creepyreverb.maxpat gen~.cross-correlation.maxpat gen~.crossover.maxpat gen~.curve.maxpat gen~.dattorro_reverb.maxpat gen~.deltaclip.maxpat gen~.drunk.maxpat gen~.dynamicexpr.maxpat gen~.edge.maxpat gen~.fbam.maxpat gen~.ffm.maxpat gen~.filters.maxpat gen~.flange_chorus.maxpat gen~.flute.maxpat gen~.fm_bells.maxpat gen~.freeverb.maxpat gen~.gcd_and_lcm.maxpat gen~.gigaverb.maxpat gen~.interpolation.maxpat gen~.interpolation.splinecurve.maxpat gen~.karplus_strong.maxpat gen~.karplus_strong_strange.maxpat gen~.livelooper.maxpat gen~.minmax.maxpat gen~.modfm.maxpat gen~.moogladder.maxpat gen~.ola.granular.maxpat gen~.ola.pulsar.maxpat gen~.overdrive.maxpat gen~.performance.maxpat gen~.pfft.vectral.maxpat gen~.pfft_centroid.maxpat gen~.pfft_example.maxpat gen~.phasor.maxpat gen~.pitchshift.maxpat gen~.pulsar.maxpat gen~.random.maxpat gen~.resonator_bank.maxpat gen~.routing.maxpat gen~.shaker.maxpat gen~.sincinterpolation.forloop.maxpat gen~.sincinterpolation.maxpat gen~.slicer.maxpat gen~.slide.maxpat gen~.spectraldelay.maxpat gen~.spectraldelay_feedback.maxpat gen~.thresh.maxpat gen~.trapezoid.maxpat gen~.urn.maxpat gen~.vosim.maxpat gen~.waveguide.maxpat gen~.waveset.maxpat gen~.waveset_with_amplitude.maxpat gen~.zerox.maxpat gen~.7_segment_envelope.maxpat gen~.band_limited_saw.maxpat gen~.band_limited_saw_using_feedback_fm.maxpat gen~.bark.maxpat gen~.biquad.maxpat gen~.bitcrush.maxpat gen~.buffir.maxpat gen~.centroid.maxpat gen~.chaos.maxpat gen~.chopper.maxpat gen~.chopper_repeat.maxpat gen~.chucker.maxpat gen~.comb.maxpat gen~.computed_sine.maxpat gen~.count.maxpat gen~.creepyreverb.maxpat gen~.cross-correlation.maxpat gen~.crossover.maxpat gen~.curve.maxpat gen~.dattorro_reverb.maxpat gen~.deltaclip.maxpat gen~.drunk.maxpat gen~.dynamicexpr.maxpat gen~.edge.maxpat gen~.fbam.maxpat gen~.ffm.maxpat gen~.filters.maxpat gen~.flange_chorus.maxpat gen~.flute.maxpat gen~.fm_bells.maxpat gen~.freeverb.maxpat gen~.gcd_and_lcm.maxpat gen~.gigaverb.maxpat gen~.interpolation.maxpat gen~.interpolation.splinecurve.maxpat gen~.karplus_strong.maxpat gen~.karplus_strong_strange.maxpat gen~.livelooper.maxpat gen~.minmax.maxpat gen~.modfm.maxpat gen~.moogladder.maxpat gen~.ola.granular.maxpat gen~.ola.pulsar.maxpat gen~.overdrive.maxpat gen~.performance.maxpat gen~.pfft.vectral.maxpat gen~.pfft_centroid.maxpat gen~.pfft_example.maxpat gen~.phasor.maxpat gen~.pitchshift.maxpat gen~.pulsar.maxpat gen~.random.maxpat gen~.resonator_bank.maxpat gen~.routing.maxpat gen~.shaker.maxpat gen~.sincinterpolation.forloop.maxpat gen~.sincinterpolation.maxpat gen~.slicer.maxpat gen~.slide.maxpat gen~.spectraldelay.maxpat gen~.spectraldelay_feedback.maxpat gen~.thresh.maxpat gen~.trapezoid.maxpat gen~.urn.maxpat gen~.vosim.maxpat gen~.waveguide.maxpat gen~.waveset.maxpat gen~.waveset_with_amplitude.maxpat gen~.zerox.maxpat"
				}

			}
, 			{
				"box" : 				{
					"fontname" : "Arial",
					"fontsize" : 12.0,
					"id" : "obj-54",
					"maxclass" : "newobj",
					"numinlets" : 2,
					"numoutlets" : 1,
					"outlettype" : [ "" ],
					"patching_rect" : [ 179.0, 364.0, 147.0, 22.0 ],
					"style" : "",
					"text" : "collect"
				}

			}
, 			{
				"box" : 				{
					"id" : "obj-61",
					"maxclass" : "button",
					"numinlets" : 1,
					"numoutlets" : 1,
					"outlettype" : [ "bang" ],
					"patching_rect" : [ 307.0, 329.0, 20.0, 20.0 ],
					"style" : ""
				}

			}
, 			{
				"box" : 				{
					"id" : "obj-8",
					"maxclass" : "newobj",
					"numinlets" : 2,
					"numoutlets" : 2,
					"outlettype" : [ "", "" ],
					"patching_rect" : [ 145.0, 300.0, 81.0, 22.0 ],
					"style" : "",
					"text" : "route append"
				}

			}
, 			{
				"box" : 				{
					"id" : "obj-5",
					"maxclass" : "newobj",
					"numinlets" : 1,
					"numoutlets" : 5,
					"outlettype" : [ "", "", "", "", "" ],
					"patching_rect" : [ 145.0, 333.0, 87.0, 22.0 ],
					"style" : "",
					"text" : "regexp gen~.*"
				}

			}
, 			{
				"box" : 				{
					"id" : "obj-27",
					"linecount" : 2,
					"maxclass" : "message",
					"numinlets" : 2,
					"numoutlets" : 1,
					"outlettype" : [ "" ],
					"patching_rect" : [ 131.0, 187.0, 171.0, 35.0 ],
					"style" : "",
					"text" : "\"SSD:/Users/Shared/Max 7/Examples/gen/\""
				}

			}
, 			{
				"box" : 				{
					"id" : "obj-1",
					"maxclass" : "newobj",
					"numinlets" : 1,
					"numoutlets" : 2,
					"outlettype" : [ "", "int" ],
					"patching_rect" : [ 145.0, 258.0, 41.0, 22.0 ],
					"style" : "",
					"text" : "folder"
				}

			}
 ],
		"lines" : [ 			{
				"patchline" : 				{
					"destination" : [ "obj-8", 0 ],
					"disabled" : 0,
					"hidden" : 0,
					"source" : [ "obj-1", 0 ]
				}

			}
, 			{
				"patchline" : 				{
					"destination" : [ "obj-40", 0 ],
					"disabled" : 0,
					"hidden" : 0,
					"source" : [ "obj-12", 1 ]
				}

			}
, 			{
				"patchline" : 				{
					"destination" : [ "obj-9", 0 ],
					"disabled" : 0,
					"hidden" : 0,
					"source" : [ "obj-12", 0 ]
				}

			}
, 			{
				"patchline" : 				{
					"destination" : [ "obj-17", 0 ],
					"disabled" : 0,
					"hidden" : 0,
					"source" : [ "obj-13", 0 ]
				}

			}
, 			{
				"patchline" : 				{
					"destination" : [ "obj-1", 0 ],
					"disabled" : 0,
					"hidden" : 0,
					"source" : [ "obj-14", 1 ]
				}

			}
, 			{
				"patchline" : 				{
					"destination" : [ "obj-15", 0 ],
					"disabled" : 0,
					"hidden" : 0,
					"source" : [ "obj-14", 0 ]
				}

			}
, 			{
				"patchline" : 				{
					"destination" : [ "obj-13", 0 ],
					"disabled" : 0,
					"hidden" : 0,
					"source" : [ "obj-15", 0 ]
				}

			}
, 			{
				"patchline" : 				{
					"destination" : [ "obj-39", 0 ],
					"disabled" : 0,
					"hidden" : 0,
					"source" : [ "obj-16", 0 ]
				}

			}
, 			{
				"patchline" : 				{
					"destination" : [ "obj-16", 0 ],
					"disabled" : 0,
					"hidden" : 0,
					"source" : [ "obj-17", 0 ]
				}

			}
, 			{
				"patchline" : 				{
					"destination" : [ "obj-18", 0 ],
					"disabled" : 0,
					"hidden" : 0,
					"source" : [ "obj-17", 2 ]
				}

			}
, 			{
				"patchline" : 				{
					"destination" : [ "obj-20", 0 ],
					"disabled" : 0,
					"hidden" : 0,
					"source" : [ "obj-17", 1 ]
				}

			}
, 			{
				"patchline" : 				{
					"destination" : [ "obj-20", 1 ],
					"disabled" : 0,
					"hidden" : 0,
					"source" : [ "obj-18", 0 ]
				}

			}
, 			{
				"patchline" : 				{
					"destination" : [ "obj-16", 1 ],
					"disabled" : 0,
					"hidden" : 0,
					"source" : [ "obj-20", 0 ]
				}

			}
, 			{
				"patchline" : 				{
					"destination" : [ "obj-14", 0 ],
					"disabled" : 0,
					"hidden" : 0,
					"source" : [ "obj-27", 0 ]
				}

			}
, 			{
				"patchline" : 				{
					"destination" : [ "obj-25", 0 ],
					"disabled" : 0,
					"hidden" : 0,
					"source" : [ "obj-28", 0 ]
				}

			}
, 			{
				"patchline" : 				{
					"destination" : [ "obj-9", 0 ],
					"disabled" : 0,
					"hidden" : 0,
					"source" : [ "obj-30", 0 ]
				}

			}
, 			{
				"patchline" : 				{
					"destination" : [ "obj-33", 0 ],
					"disabled" : 0,
					"hidden" : 0,
					"source" : [ "obj-37", 0 ]
				}

			}
, 			{
				"patchline" : 				{
					"destination" : [ "obj-12", 0 ],
					"disabled" : 0,
					"hidden" : 0,
					"source" : [ "obj-39", 0 ]
				}

			}
, 			{
				"patchline" : 				{
					"destination" : [ "obj-54", 0 ],
					"disabled" : 0,
					"hidden" : 0,
					"source" : [ "obj-5", 2 ]
				}

			}
, 			{
				"patchline" : 				{
					"destination" : [ "obj-13", 0 ],
					"disabled" : 0,
					"hidden" : 0,
					"source" : [ "obj-54", 0 ]
				}

			}
, 			{
				"patchline" : 				{
					"destination" : [ "obj-54", 1 ],
					"disabled" : 0,
					"hidden" : 0,
					"source" : [ "obj-61", 0 ]
				}

			}
, 			{
				"patchline" : 				{
					"destination" : [ "obj-5", 0 ],
					"disabled" : 0,
					"hidden" : 0,
					"source" : [ "obj-8", 0 ]
				}

			}
, 			{
				"patchline" : 				{
					"destination" : [ "obj-28", 0 ],
					"disabled" : 0,
					"hidden" : 0,
					"source" : [ "obj-9", 0 ]
				}

			}
 ],
		"dependency_cache" : [ 			{
				"name" : "collect.maxpat",
				"bootpath" : "~/Max_Externals/RTC-lib_71/patchers/Lists",
				"type" : "JSON",
				"implicit" : 1
			}
, 			{
				"name" : "data_issues.js",
				"bootpath" : "~/data_issues",
				"type" : "TEXT",
				"implicit" : 1
			}
, 			{
				"name" : "script.shell_pbcopy.maxpat",
				"bootpath" : "~/data_issues",
				"type" : "JSON",
				"implicit" : 1
			}
, 			{
				"name" : "lh.applescript.js",
				"bootpath" : "~/dispersion-lab/3rd-party",
				"type" : "TEXT",
				"implicit" : 1
			}
, 			{
				"name" : "shell.mxo",
				"type" : "iLaX"
			}
 ],
		"autosave" : 0
	}

}
