{
	"patcher" : 	{
		"fileversion" : 1,
		"appversion" : 		{
			"major" : 7,
			"minor" : 3,
			"revision" : 3,
			"architecture" : "x86",
			"modernui" : 1
		}
,
		"rect" : [ 59.0, 104.0, 741.0, 670.0 ],
		"bglocked" : 0,
		"openinpresentation" : 0,
		"default_fontsize" : 12.0,
		"default_fontface" : 0,
		"default_fontname" : "Arial",
		"gridonopen" : 1,
		"gridsize" : [ 15.0, 15.0 ],
		"gridsnaponopen" : 1,
		"objectsnaponopen" : 1,
		"statusbarvisible" : 2,
		"toolbarvisible" : 1,
		"lefttoolbarpinned" : 0,
		"toptoolbarpinned" : 0,
		"righttoolbarpinned" : 0,
		"bottomtoolbarpinned" : 0,
		"toolbars_unpinned_last_save" : 0,
		"tallnewobj" : 0,
		"boxanimatetime" : 200,
		"enablehscroll" : 1,
		"enablevscroll" : 1,
		"devicewidth" : 0.0,
		"description" : "",
		"digest" : "",
		"tags" : "",
		"style" : "",
		"subpatcher_template" : "",
		"boxes" : [ 			{
				"box" : 				{
					"id" : "obj-1",
					"maxclass" : "newobj",
					"numinlets" : 1,
					"numoutlets" : 1,
					"outlettype" : [ "" ],
					"patching_rect" : [ 21.0, 284.0, 56.0, 22.0 ],
					"style" : "",
					"text" : "deferlow"
				}

			}
, 			{
				"box" : 				{
					"comment" : "",
					"id" : "obj-3",
					"index" : 1,
					"maxclass" : "outlet",
					"numinlets" : 1,
					"numoutlets" : 0,
					"patching_rect" : [ 21.0, 508.0, 30.0, 30.0 ],
					"style" : ""
				}

			}
, 			{
				"box" : 				{
					"id" : "obj-2",
					"maxclass" : "newobj",
					"numinlets" : 1,
					"numoutlets" : 2,
					"outlettype" : [ "bang", "bang" ],
					"patching_rect" : [ 21.0, 315.0, 34.0, 22.0 ],
					"style" : "",
					"text" : "t b b"
				}

			}
, 			{
				"box" : 				{
					"comment" : "",
					"id" : "obj-11",
					"index" : 1,
					"maxclass" : "inlet",
					"numinlets" : 0,
					"numoutlets" : 1,
					"outlettype" : [ "bang" ],
					"patching_rect" : [ 5.0, -18.0, 30.0, 30.0 ],
					"style" : ""
				}

			}
, 			{
				"box" : 				{
					"id" : "obj-10",
					"linecount" : 13,
					"maxclass" : "message",
					"numinlets" : 2,
					"numoutlets" : 1,
					"outlettype" : [ "" ],
					"patching_rect" : [ 5.0, 20.0, 1295.0, 183.0 ],
					"style" : "",
					"text" : "<pre><code> ----------begin_max5_patcher---------- 1654.3oc0YssaaiCD8YmuBV0GZZWWCRckdKVfc+AVfEXeqafAsDsCKjnDnnb RZQ2u8kCojiiiuHk33j8gHGdQTyblyLbFxebwHu4k2xq8P+J5qnQi9wEiFY6 B5XTa6QdEraSyY01o4UvqqYK4diciUwzoWKjKmo3oZ25LcJcBdLJDGC+Dggm 9ASvnqZeGYSgPly01EzusSQlc4Km+sO6G6c+LKazcSkz1as9tbtc1cyyMI8c UbmH34gtBF4mWbA7XbO0MI+Fy2uaQWwTRVg6C0DMcJFOkFh6FUyu0pu.BnU0 5R0gQkjXKPDE5OIZLJI5vnB4wnR.9TfJcSlshmMyrrF4aFn.h4MZGQXzZvYj WZtfK0anEDbnQ38oFyKMYro4z0J.n0JCdo4pYbIatSXvcC1hParVQzfwn3ov pDXVUxzDmQyY0FpsaKd4ZyCqQWBlQD4.FGBlDZ4rz.3mjfAyYCIuRb1i6OlP s9iID5SzeLf7lvebsIMimarXX7AzYZaLn3of2VTxf0Y5yVkmyjKOopsFgQyQ yOjV6HtgjHPqCCGbLFxzcq1A8WsERs23Vse7K.JXBvnJslezuyR0hUG1ytER BLzdCjP7GNSvG+VjJjlyYRT9wcAhhHVW.xvICX+cq498WyshIvCdZpeZYQAG HTao++80hZzMh7bDZIv.tqrAouliXJk1sSFpbAhYFG5c89R0Hgz1yRt7eQtc +P0k1WOkYGRhJXUHcIhuhqtSCXpoalFIpkePaVREmkcm8qJQLTincYdWmLlK j7zxFoUPS1u4IXJ1EU15qRbgkI3jAXfng619fer84TR8xQ0bs2Q0rPeemlMb lmO4YS7.NGHlmTZmjyy.twBwxFEGY9nnqKuA5oNUIpLzCTZozX+0hRIZgpr. 4DLDA3iK4ZHUKX9V02DO21qgKd4MWyUs7xrRC8UVZVaSRZlkrMOz20xT+fgU uCAYgvjDZm3XTDwR48uqsOYGiW.iXMbb0GGJu02kGa3Tm0k5Obdqu+q.usRw q3xLDqB94.z2nPWNfDapClLbGL8MIoa4WTJ0qqg3OTBV9ILGdXwqEe2N.wHe uHIO1gFQVycvv29LI9sUxiJyxyQ7aqJUVSS2+VpEKDbiyov70QYMEUstttwW TlmYFEplv0Qa+sN9FG2GzASsrFkV0TvY0fGJ32mKp06zaite3OzE8LhlXIiD aKhe3dYi6JAl8rMAYfgS68emh5XVauZCZtI3s+8bBnVm133ASSiC9+hO6d30 cat.agziMmin.PQwCN3Vb3PApfm.M6L.XeOGIL4DdvpG5b+ZygNZ3zJ5PQqg 5T9xgTad9WtnZyxXZ1LQccCu9Q3oaJS1wTNPwIjP2lr9CurrjSBaCJPQ8ziZ suhTYUSx3qDobzhhYy4440G+nA6RohDO7Dl8Cd1AorQXOkfPMjtks1qCo7SS 7cmKpsNnjjgWlJM4UHcRvBCocaRTn3NzhdXcCoNpdvf0vo32dFWSkw0skPbb 27XWofICe2FJ8DGkDN361Ad+eBC8.EA48E3w6+K3osLAnmS8cIjDE.2kPR3N OrZ68IziyptM1Y7vA0f8.pgOw7AW+gUb3T94aeKB4hU7IKYBShI129y.Q39q M39g+J4p1YD3OwOIhDDc+z.PhmIZQAOM52PZk4strlUTkyULSZ8eBgmD7wu7 OxZX35bQF+RsAc.DBiwvHFUg.io+T5clf+WZ5+WHX7mzeryP+v6evJ.17025 ZxrlFn+GRBpKaTocvT2Yph7WiQYFLRHYvIDrwjfq7BQVOoqEYYb4lAwxD0vU pjsYekJSII1N1I+ruBHb.mH7QDPqVf6q.9rjmdAXv8sze4Ya.i7rDPv+AEbL KZxPrnOOCXRO.LqPedLfaYad0kGJsOxC4rYu1xWZO7G7QvmBQVUoPpaCKQo1 8XCCBrE10lzwCZEDFaa4los08BwoS6fqMXCjb2pG87Y9cBD9si.Y8WOZ.2sj 5WRAJoOBDbPdmK.JDXPGiBskT+RJPw8IBhUpOSxSXOh3GeFYz8Ihe7YDeB5i 8hbdwGxy0AaqH9QA1Skp8XCfV3saE4B0GGQebqjvD2gZ4pMCZ8BravVoAsmX czymqbu7jSNuI6dzMKehhiq1EVU0JtptcIsRhoT0uUpVeSeFlkz0zd5Yl53V I5luqGlxTFp1TCZiq7Nuaot60wqnzjSsrQzlVs4K+yK9OK.SX8C -----------end_max5_patcher----------- </code></pre>"
				}

			}
, 			{
				"box" : 				{
					"fontname" : "Arial",
					"fontsize" : 12.0,
					"id" : "obj-63",
					"linecount" : 7,
					"maxclass" : "textedit",
					"numinlets" : 1,
					"numoutlets" : 4,
					"outlettype" : [ "", "int", "", "" ],
					"outputmode" : 1,
					"parameter_enable" : 0,
					"patching_rect" : [ 36.0, 347.0, 255.0, 89.0 ],
					"style" : "",
					"tabmode" : 0,
					"text" : "tell application \"System Events\" to tell process \"Max\"\r\tclick menu item \"Edit\" of menu 1 of menu bar item \"View\" of menu bar 1\n\tclick menu item \"Paste\" of menu 1 of menu bar item \"Edit\" of menu bar 1\rend tell",
					"varname" : "textedit"
				}

			}
, 			{
				"box" : 				{
					"fontname" : "Arial",
					"fontsize" : 12.0,
					"id" : "obj-64",
					"maxclass" : "newobj",
					"numinlets" : 1,
					"numoutlets" : 1,
					"outlettype" : [ "" ],
					"patching_rect" : [ 36.0, 444.0, 93.0, 22.0 ],
					"saved_object_attributes" : 					{
						"filename" : "lh.applescript",
						"parameter_enable" : 0
					}
,
					"style" : "",
					"text" : "js lh.applescript",
					"varname" : "js"
				}

			}
, 			{
				"box" : 				{
					"id" : "obj-81",
					"maxclass" : "newobj",
					"numinlets" : 1,
					"numoutlets" : 2,
					"outlettype" : [ "", "bang" ],
					"patching_rect" : [ 36.0, 471.0, 35.0, 22.0 ],
					"style" : "",
					"text" : "shell"
				}

			}
, 			{
				"box" : 				{
					"id" : "obj-238",
					"maxclass" : "newobj",
					"numinlets" : 1,
					"numoutlets" : 1,
					"outlettype" : [ "" ],
					"patching_rect" : [ 5.0, 202.0, 141.0, 22.0 ],
					"style" : "",
					"text" : "sprintf echo %s | pbcopy"
				}

			}
, 			{
				"box" : 				{
					"id" : "obj-233",
					"maxclass" : "newobj",
					"numinlets" : 1,
					"numoutlets" : 2,
					"outlettype" : [ "", "bang" ],
					"patching_rect" : [ 5.0, 239.0, 35.0, 22.0 ],
					"style" : "",
					"text" : "shell"
				}

			}
 ],
		"lines" : [ 			{
				"patchline" : 				{
					"destination" : [ "obj-2", 0 ],
					"disabled" : 0,
					"hidden" : 0,
					"source" : [ "obj-1", 0 ]
				}

			}
, 			{
				"patchline" : 				{
					"destination" : [ "obj-238", 0 ],
					"disabled" : 0,
					"hidden" : 0,
					"source" : [ "obj-10", 0 ]
				}

			}
, 			{
				"patchline" : 				{
					"destination" : [ "obj-10", 0 ],
					"disabled" : 0,
					"hidden" : 0,
					"source" : [ "obj-11", 0 ]
				}

			}
, 			{
				"patchline" : 				{
					"destination" : [ "obj-3", 0 ],
					"disabled" : 0,
					"hidden" : 0,
					"source" : [ "obj-2", 0 ]
				}

			}
, 			{
				"patchline" : 				{
					"destination" : [ "obj-63", 0 ],
					"disabled" : 0,
					"hidden" : 0,
					"source" : [ "obj-2", 1 ]
				}

			}
, 			{
				"patchline" : 				{
					"destination" : [ "obj-1", 0 ],
					"disabled" : 0,
					"hidden" : 0,
					"source" : [ "obj-233", 1 ]
				}

			}
, 			{
				"patchline" : 				{
					"destination" : [ "obj-233", 0 ],
					"disabled" : 0,
					"hidden" : 0,
					"source" : [ "obj-238", 0 ]
				}

			}
, 			{
				"patchline" : 				{
					"destination" : [ "obj-64", 0 ],
					"disabled" : 0,
					"hidden" : 0,
					"source" : [ "obj-63", 0 ]
				}

			}
, 			{
				"patchline" : 				{
					"destination" : [ "obj-81", 0 ],
					"disabled" : 0,
					"hidden" : 0,
					"source" : [ "obj-64", 0 ]
				}

			}
 ],
		"styles" : [ 			{
				"name" : "AudioStatus_Menu",
				"default" : 				{
					"bgfillcolor" : 					{
						"type" : "color",
						"color" : [ 0.294118, 0.313726, 0.337255, 1 ],
						"color1" : [ 0.454902, 0.462745, 0.482353, 0.0 ],
						"color2" : [ 0.290196, 0.309804, 0.301961, 1.0 ],
						"angle" : 270.0,
						"proportion" : 0.39,
						"autogradient" : 0
					}

				}
,
				"parentstyle" : "",
				"multi" : 0
			}
 ]
	}

}
